<mxfile host="app.diagrams.net" agent="Mozilla/5.0 (Windows NT 10.0; Win64; x64) AppleWebKit/537.36 (KHTML, like Gecko) Chrome/138.0.0.0 Safari/537.36" version="28.0.4">
  <diagram name="Page-1" id="Zp_uVIFmwWcctzxzT6wm">
    <mxGraphModel dx="1042" dy="527" grid="1" gridSize="10" guides="1" tooltips="1" connect="1" arrows="1" fold="1" page="1" pageScale="1" pageWidth="1000" pageHeight="1000" math="0" shadow="0">
      <root>
        <mxCell id="0" />
        <mxCell id="1" parent="0" />
        <mxCell id="ZPBtxk6eBlFj207OjMLy-2" value="" style="whiteSpace=wrap;html=1;aspect=fixed;strokeColor=none;fillColor=light-dark(#F5F0DC,#F5F0DC);strokeWidth=0;" parent="1" vertex="1">
          <mxGeometry x="200" y="200" width="600" height="600" as="geometry" />
        </mxCell>
        <mxCell id="ZPBtxk6eBlFj207OjMLy-3" value="" style="whiteSpace=wrap;html=1;aspect=fixed;fillColor=none;strokeColor=light-dark(#6B4C3B,#6B4C3B);strokeWidth=4;" parent="1" vertex="1">
          <mxGeometry x="250" y="250" width="500" height="500" as="geometry" />
        </mxCell>
        <mxCell id="ZPBtxk6eBlFj207OjMLy-5" value="" style="endArrow=none;html=1;rounded=0;entryX=1;entryY=0;entryDx=0;entryDy=0;exitX=0;exitY=1;exitDx=0;exitDy=0;strokeColor=light-dark(#6B4C3B,#6B4C3B);strokeWidth=4;" parent="1" source="ZPBtxk6eBlFj207OjMLy-3" target="ZPBtxk6eBlFj207OjMLy-3" edge="1">
          <mxGeometry width="50" height="50" relative="1" as="geometry">
            <mxPoint x="530" y="560" as="sourcePoint" />
            <mxPoint x="580" y="510" as="targetPoint" />
          </mxGeometry>
        </mxCell>
        <mxCell id="ZPBtxk6eBlFj207OjMLy-6" value="" style="endArrow=none;html=1;rounded=0;entryX=0;entryY=0;entryDx=0;entryDy=0;exitX=1;exitY=1;exitDx=0;exitDy=0;strokeColor=light-dark(#6B4C3B,#6B4C3B);strokeWidth=4;" parent="1" source="ZPBtxk6eBlFj207OjMLy-3" target="ZPBtxk6eBlFj207OjMLy-3" edge="1">
          <mxGeometry width="50" height="50" relative="1" as="geometry">
            <mxPoint x="420" y="900" as="sourcePoint" />
            <mxPoint x="920" y="400" as="targetPoint" />
          </mxGeometry>
        </mxCell>
        <mxCell id="ZPBtxk6eBlFj207OjMLy-7" value="" style="endArrow=none;html=1;rounded=0;entryX=0.5;entryY=1;entryDx=0;entryDy=0;strokeColor=light-dark(#6B4C3B,#6B4C3B);strokeWidth=4;exitX=0.5;exitY=0;exitDx=0;exitDy=0;" parent="1" source="ZPBtxk6eBlFj207OjMLy-10" target="ZPBtxk6eBlFj207OjMLy-3" edge="1">
          <mxGeometry width="50" height="50" relative="1" as="geometry">
            <mxPoint x="900" y="650" as="sourcePoint" />
            <mxPoint x="1000" y="660" as="targetPoint" />
          </mxGeometry>
        </mxCell>
        <mxCell id="ZPBtxk6eBlFj207OjMLy-8" value="" style="endArrow=none;html=1;rounded=0;entryX=1;entryY=0.5;entryDx=0;entryDy=0;strokeColor=light-dark(#6B4C3B,#6B4C3B);strokeWidth=4;exitX=0;exitY=0.5;exitDx=0;exitDy=0;" parent="1" source="ZPBtxk6eBlFj207OjMLy-3" target="ZPBtxk6eBlFj207OjMLy-3" edge="1">
          <mxGeometry width="50" height="50" relative="1" as="geometry">
            <mxPoint x="1020" y="570" as="sourcePoint" />
            <mxPoint x="1020" y="1070" as="targetPoint" />
          </mxGeometry>
        </mxCell>
        <mxCell id="ZPBtxk6eBlFj207OjMLy-9" value="" style="ellipse;whiteSpace=wrap;html=1;aspect=fixed;strokeColor=none;fillColor=light-dark(#4A2F20,#4A2F20);strokeWidth=2;" parent="1" vertex="1">
          <mxGeometry x="237" y="237" width="25" height="25" as="geometry" />
        </mxCell>
        <mxCell id="ZPBtxk6eBlFj207OjMLy-11" value="" style="endArrow=none;html=1;rounded=0;entryX=0.5;entryY=1;entryDx=0;entryDy=0;strokeColor=light-dark(#6B4C3B,#6B4C3B);strokeWidth=4;exitX=0.5;exitY=0;exitDx=0;exitDy=0;" parent="1" source="ZPBtxk6eBlFj207OjMLy-3" target="ZPBtxk6eBlFj207OjMLy-10" edge="1">
          <mxGeometry width="50" height="50" relative="1" as="geometry">
            <mxPoint x="500" y="250" as="sourcePoint" />
            <mxPoint x="500" y="750" as="targetPoint" />
          </mxGeometry>
        </mxCell>
        <mxCell id="ZPBtxk6eBlFj207OjMLy-10" value="" style="ellipse;whiteSpace=wrap;html=1;aspect=fixed;strokeColor=none;fillColor=light-dark(#4A2F20,#4A2F20);strokeWidth=2;" parent="1" vertex="1">
          <mxGeometry x="487" y="487" width="25" height="25" as="geometry" />
        </mxCell>
        <mxCell id="ZPBtxk6eBlFj207OjMLy-12" value="" style="ellipse;whiteSpace=wrap;html=1;aspect=fixed;strokeColor=none;fillColor=light-dark(#4A2F20,#4A2F20);strokeWidth=2;" parent="1" vertex="1">
          <mxGeometry x="487" y="237" width="25" height="25" as="geometry" />
        </mxCell>
        <mxCell id="ZPBtxk6eBlFj207OjMLy-13" value="" style="ellipse;whiteSpace=wrap;html=1;aspect=fixed;strokeColor=none;fillColor=light-dark(#4A2F20,#4A2F20);strokeWidth=2;gradientColor=none;" parent="1" vertex="1">
          <mxGeometry x="737" y="237" width="25" height="25" as="geometry" />
        </mxCell>
        <mxCell id="ZPBtxk6eBlFj207OjMLy-14" value="" style="ellipse;whiteSpace=wrap;html=1;aspect=fixed;strokeColor=none;fillColor=light-dark(#4A2F20,#4A2F20);strokeWidth=2;" parent="1" vertex="1">
          <mxGeometry x="237" y="737" width="25" height="25" as="geometry" />
        </mxCell>
        <mxCell id="ZPBtxk6eBlFj207OjMLy-15" value="" style="ellipse;whiteSpace=wrap;html=1;aspect=fixed;strokeColor=none;fillColor=light-dark(#4A2F20,#4A2F20);strokeWidth=2;" parent="1" vertex="1">
          <mxGeometry x="737" y="737" width="25" height="25" as="geometry" />
        </mxCell>
        <mxCell id="ZPBtxk6eBlFj207OjMLy-17" value="" style="ellipse;whiteSpace=wrap;html=1;aspect=fixed;strokeColor=none;fillColor=light-dark(#4A2F20,#4A2F20);strokeWidth=2;" parent="1" vertex="1">
          <mxGeometry x="487" y="737" width="25" height="25" as="geometry" />
        </mxCell>
        <mxCell id="ZPBtxk6eBlFj207OjMLy-18" value="" style="ellipse;whiteSpace=wrap;html=1;aspect=fixed;strokeColor=none;fillColor=light-dark(#4A2F20,#4A2F20);strokeWidth=2;" parent="1" vertex="1">
          <mxGeometry x="237" y="487" width="25" height="25" as="geometry" />
        </mxCell>
        <mxCell id="ZPBtxk6eBlFj207OjMLy-19" value="" style="ellipse;whiteSpace=wrap;html=1;aspect=fixed;strokeColor=none;fillColor=light-dark(#4A2F20,#4A2F20);strokeWidth=2;" parent="1" vertex="1">
          <mxGeometry x="737" y="487" width="25" height="25" as="geometry" />
        </mxCell>
      </root>
    </mxGraphModel>
  </diagram>
</mxfile>
